# xmcd
# Track frame offsets:
# 150
# 14125
# 28807
# 43952
# 55577
# 66170
# 80157
# 93657
# 104782
# 115437
# 126292
# 138282
# 153815
# 167270
# 180412
# 193025
# 203677
# 217022
# 234900
# 247412
# 260090
# 275452
# 290020
# 307207
# 324335
#
# Disc length: 4504 seconds
# Revision: 0
# Processed by: cddbd v1.4PL0 Copyright (c) Steve Scherf et al.
# Submitted via: VisiTrax 2.9.5.181 - For more info visit www.synapsa.com
#
DISCID=85119619
DTITLE=Etta James - The Genuine Article
DYEAR=1996
DGENRE=
TTITLE0=I Just Want To Make Love To You
TTITLE1=A Sunday Kind Of Love
TTITLE2=I Just Want To Be Loved (But Only By You)
TTITLE3=I'd Rather Go Blind
TTITLE4=Tell Mama
TTITLE5=Stormy Weather
TTITLE6=Do Right Woman, Do Right Man
TTITLE7=Security
TTITLE8=Miss Pitiful
TTITLE9=You Got It
TTITLE10=It's All Right
TTITLE11=I Found A Love
TTITLE12=At Last
TTITLE13=All I Could Do Is Cry
TTITLE14=Spoonful
TTITLE15=Don't Blame Me
TTITLE16=842-3089 (Call My Name)
TTITLE17=These Foolish Things (Remind Me Of You)
TTITLE18=If I Can't Have You
TTITLE19=Something's Got A Hold On Me
TTITLE20=Tell It Like It Is
TTITLE21=W.O.M.A.N.
TTITLE22=I Never Meant To Love Him
TTITLE23=Lovin' Arms
TTITLE24=My Dearest Darling
EXTD=
EXTT0=
EXTT1=
EXTT2=
EXTT3=
EXTT4=
EXTT5=
EXTT6=
EXTT7=
EXTT8=
EXTT9=
EXTT10=
EXTT11=
EXTT12=
EXTT13=
EXTT14=
EXTT15=
EXTT16=
EXTT17=
EXTT18=
EXTT19=
EXTT20=
EXTT21=
EXTT22=
EXTT23=
EXTT24=
PLAYORDER=
